<svg width="320" height="320" viewBox="0 0 320 320" fill="none" xmlns="http://www.w3.org/2000/svg">
  <defs>
    <linearGradient id="bg" x1="40" y1="26" x2="284" y2="296" gradientUnits="userSpaceOnUse">
      <stop stop-color="#16243F" />
      <stop offset="0.55" stop-color="#071126" />
      <stop offset="1" stop-color="#040912" />
    </linearGradient>
    <linearGradient id="frame" x1="48" y1="34" x2="276" y2="286" gradientUnits="userSpaceOnUse">
      <stop stop-color="#7DD3FC" />
      <stop offset="0.5" stop-color="#C4B5FD" />
      <stop offset="1" stop-color="#67E8F9" />
    </linearGradient>
    <linearGradient id="gold" x1="104" y1="78" x2="226" y2="254" gradientUnits="userSpaceOnUse">
      <stop stop-color="#FFF4BF" />
      <stop offset="0.28" stop-color="#FDE68A" />
      <stop offset="0.62" stop-color="#FBBF24" />
      <stop offset="1" stop-color="#D97706" />
    </linearGradient>
    <radialGradient id="glow" cx="0" cy="0" r="1" gradientUnits="userSpaceOnUse" gradientTransform="translate(160 170) rotate(90) scale(120)">
      <stop stop-color="#FACC15" stop-opacity="0.3" />
      <stop offset="1" stop-color="#FACC15" stop-opacity="0" />
    </radialGradient>
  </defs>

  <rect x="36" y="26" width="248" height="268" rx="60" fill="url(#bg)" />
  <rect x="44" y="34" width="232" height="252" rx="52" stroke="url(#frame)" stroke-width="3" stroke-opacity="0.95" />
  <rect x="48" y="38" width="224" height="244" rx="48" stroke="#67E8F9" stroke-opacity="0.2" />

  <ellipse cx="160" cy="170" rx="104" ry="88" fill="url(#glow)" />

  <path
    d="M203 117C191 106 176 100 159 100C134 100 114 115 114 136C114 155 128 165 158 172C188 179 202 189 202 208C202 229 182 244 156 244C138 244 122 238 109 226"
    stroke="url(#gold)"
    stroke-width="22"
    stroke-linecap="round"
    stroke-linejoin="round"
  />
  <path d="M160 82V262" stroke="url(#gold)" stroke-width="18" stroke-linecap="round" />

  <path d="M111 126C123 113 140 106 159 106" stroke="#FFF7D1" stroke-opacity="0.85" stroke-width="5" stroke-linecap="round" />
</svg>
