<svg width="320" height="320" viewBox="0 0 320 320" fill="none" xmlns="http://www.w3.org/2000/svg">
  <defs>
    <linearGradient id="panel" x1="38" y1="32" x2="280" y2="292" gradientUnits="userSpaceOnUse">
      <stop stop-color="#1B2A4C" />
      <stop offset="0.5" stop-color="#060E2A" />
      <stop offset="1" stop-color="#050813" />
    </linearGradient>
    <linearGradient id="frame" x1="56" y1="44" x2="266" y2="280" gradientUnits="userSpaceOnUse">
      <stop stop-color="#67E8F9" />
      <stop offset="0.48" stop-color="#60A5FA" />
      <stop offset="1" stop-color="#A78BFA" />
    </linearGradient>
    <linearGradient id="loopA" x1="90" y1="206" x2="188" y2="92" gradientUnits="userSpaceOnUse">
      <stop stop-color="#2DD4BF" />
      <stop offset="1" stop-color="#9AE6FF" />
    </linearGradient>
    <linearGradient id="loopB" x1="132" y1="110" x2="246" y2="206" gradientUnits="userSpaceOnUse">
      <stop stop-color="#F0ABFC" />
      <stop offset="1" stop-color="#60A5FA" />
    </linearGradient>
    <radialGradient id="innerGlow" cx="0" cy="0" r="1" gradientUnits="userSpaceOnUse" gradientTransform="translate(160 188) rotate(90) scale(120)">
      <stop stop-color="#0EA5E9" stop-opacity="0.35" />
      <stop offset="1" stop-color="#0EA5E9" stop-opacity="0" />
    </radialGradient>
  </defs>

  <rect x="38" y="30" width="244" height="260" rx="58" fill="url(#panel)" />
  <rect x="46" y="38" width="228" height="244" rx="50" stroke="url(#frame)" stroke-width="3" stroke-opacity="0.9" />
  <rect x="50" y="42" width="220" height="236" rx="46" stroke="#67E8F9" stroke-opacity="0.28" stroke-width="1" />

  <ellipse cx="160" cy="188" rx="98" ry="78" fill="url(#innerGlow)" />

  <path d="M84 182C84 136 122 106 159 123C177 131 190 147 204 165C219 184 230 194 246 194C258 194 266 187 270 180"
        stroke="url(#loopA)" stroke-width="22" stroke-linecap="round" stroke-linejoin="round" />

  <path d="M248 182C248 136 210 106 173 123C155 131 142 147 128 165C113 184 102 194 86 194C74 194 66 187 62 180"
        stroke="url(#loopB)" stroke-width="22" stroke-linecap="round" stroke-linejoin="round" />

  <path d="M110 150C132 132 154 134 174 152" stroke="#DFF9FF" stroke-opacity="0.8" stroke-width="5" stroke-linecap="round" />
</svg>
